<?xml version="1.0" standalone="no"?>
<!DOCTYPE svg PUBLIC "-//W3C//DTD SVG 20010904//EN"
 "http://www.w3.org/TR/2001/REC-SVG-20010904/DTD/svg10.dtd">
<svg version="1.0" xmlns="http://www.w3.org/2000/svg"
 width="300.000000pt" height="300.000000pt" viewBox="0 0 300.000000 300.000000"
 preserveAspectRatio="xMidYMid meet">
<metadata>
Created by potrace 1.10, written by Peter Selinger 2001-2011
</metadata>
<g transform="translate(0.000000,300.000000) scale(0.100000,-0.100000)"
fill="#005aab" stroke="none">
<path d="M300 1500 l0 -480 615 0 615 0 0 183 0 184 140 196 141 197 154 0
155 0 0 -380 0 -380 135 0 135 0 0 380 0 380 155 0 155 0 0 100 0 100 -525 0
-525 0 -111 -167 c-62 -93 -120 -179 -130 -192 l-18 -23 -126 191 -125 191
-151 0 -150 0 44 -62 c25 -35 120 -168 211 -297 l166 -234 0 -89 0 -88 -347 2
-348 3 -3 383 -2 382 -130 0 -130 0 0 -480z"/>
</g>
</svg>
