<svg id="exportSVG" visibility="visible" xmlns="http://www.w3.org/2000/svg" xmlns:xlink="http://www.w3.org/1999/xlink" version="1.1" data-info="draw.ninja" data-name="draw" viewBox="0 0 1010 200" width="1010" height="200" style="position: fixed; top: 0px; left: 0px;"><defs id="defsExport"><filter id="filter0"><feGaussianBlur stdDeviation="0"></feGaussianBlur></filter><pattern id="patternImage" patternUnits="userSpaceOnUse" x="0" y="0" width="1" height="1" data-x="0" data-y="0" data-width="1" data-height="1" data-multx="1" data-multy="1" patternTransform="matrix(1,0,0,1,0,0)" data-transs="0" data-transf="0" data-source="patternImage" data-draw="1" fill="#B3B3B3" fill-opacity="1"></pattern><pattern id="pattern0" patternUnits="userSpaceOnUse" x="0" y="0" width="10" height="10" data-x="0" data-y="0" data-width="10" data-height="10" data-multx="1" data-multy="1" stroke="none" patternTransform="matrix(1,0,0,1,0,0)" data-transs="0" data-transf="0" data-source="Pattern 0" data-draw="1" fill="#B3B3B3" fill-opacity="1"><path transform="matrix(1,0,0,1,0,0)" d="M0 0 L5 0 L5 5 L0 5 L0 0 Z"></path></pattern><pattern id="pattern1" patternUnits="userSpaceOnUse" x="0" y="0" width="10" height="10" data-x="0" data-y="0" data-width="10" data-height="10" data-multx="1" data-multy="1" stroke="none" patternTransform="matrix(1,0,0,1,0,0)" data-transs="0" data-transf="0" data-source="Pattern 1" data-draw="1" fill="#B3B3B3" fill-opacity="1"><path transform="matrix(1,0,0,1,0,0)" d="M0 5 L5 0 L10 5 L5 10 L0 5 Z"></path></pattern><pattern id="pattern2" patternUnits="userSpaceOnUse" x="0" y="0" width="10" height="10" data-x="0" data-y="0" data-width="10" data-height="10" data-multx="1" data-multy="1" stroke="none" patternTransform="matrix(1,0,0,1,0,0)" data-transs="0" data-transf="0" data-source="Pattern 2" data-draw="1" fill="#B3B3B3" fill-opacity="1"><path transform="matrix(1,0,0,1,0,0)" d="M0 9 L5 1 L10 9 L0 9 Z"></path></pattern><pattern id="pattern3" patternUnits="userSpaceOnUse" x="0" y="0" width="10" height="10" data-x="0" data-y="0" data-width="10" data-height="10" data-multx="1" data-multy="1" stroke="none" patternTransform="matrix(1,0,0,1,0,0)" data-transs="0" data-transf="0" data-source="Pattern 3" data-draw="1" fill="#B3B3B3" fill-opacity="1"><path transform="matrix(1,0,0,1,0,0)" d="M0 5 C0 2.25 2.25 0 5 0 C7.75 0 10 2.25 10 5 C10 7.75 7.75 10 5 10 C2.25 10 0 7.75 0 5 Z"></path></pattern><pattern id="pattern4" patternUnits="userSpaceOnUse" x="0" y="0" width="10" height="10" data-x="0" data-y="0" data-width="10" data-height="10" data-multx="1" data-multy="1" stroke="none" patternTransform="matrix(1,0,0,1,0,0)" data-transs="0" data-transf="0" data-source="Pattern 4" data-draw="1" fill="#B3B3B3" fill-opacity="1"><path transform="matrix(1,0,0,1,0,0)" d="M0 5 L4 4 L5 0 L6 4 L10 5 L6 6 L5 10 L4 6 L0 5 Z"></path></pattern><pattern id="pattern5" patternUnits="userSpaceOnUse" x="0" y="0" width="10" height="10" data-x="0" data-y="0" data-width="10" data-height="10" data-multx="1" data-multy="1" stroke="none" patternTransform="matrix(1,0,0,1,0,0)" data-transs="0" data-transf="0" data-source="Pattern 5" data-draw="1" fill="#B3B3B3" fill-opacity="1"><path transform="matrix(1,0,0,1,0,0)" d="M5 10 C-5 2.75 3 -1.75 5 1 C7 -1.75 15 2.75 5 10 Z"></path></pattern><pattern id="pattern6" patternUnits="userSpaceOnUse" x="0" y="0" width="10" height="10" data-x="0" data-y="0" data-width="10" data-height="10" data-multx="1" data-multy="1" stroke="none" patternTransform="matrix(1,0,0,1,0,0)" data-transs="0" data-transf="0" data-source="Pattern 6" data-draw="1" fill="#B3B3B3" fill-opacity="1"><path transform="matrix(1,0,0,1,0,0)" d="M3 0 L7 0 L7 10 L3 10 L3 0 Z"></path></pattern><pattern id="pattern7" patternUnits="userSpaceOnUse" x="0" y="0" width="10" height="10" data-x="0" data-y="0" data-width="10" data-height="10" data-multx="1" data-multy="1" stroke="none" patternTransform="matrix(1,0,0,1,0,0)" data-transs="0" data-transf="0" data-source="Pattern 7" data-draw="1" fill="#B3B3B3" fill-opacity="1"><path transform="matrix(1,0,0,1,0,0)" d="M10 3 L10 7 L0 7 L0 3 L10 3 Z"></path></pattern><pattern id="pattern8" patternUnits="userSpaceOnUse" x="0" y="0" width="10" height="10" data-x="0" data-y="0" data-width="10" data-height="10" data-multx="1" data-multy="1" stroke="none" patternTransform="matrix(1,0,0,1,0,0)" data-transs="0" data-transf="0" data-source="Pattern 8" data-draw="1" fill="#B3B3B3" fill-opacity="1"><path transform="matrix(1,0,0,1,0,0)" d="M0 10 L3 3 L10 0 L7 7 L0 10 Z"></path></pattern><pattern id="pattern9" patternUnits="userSpaceOnUse" x="0" y="0" width="10" height="10" data-x="0" data-y="0" data-width="10" data-height="10" data-multx="1" data-multy="1" stroke="none" patternTransform="matrix(1,0,0,1,0,0)" data-transs="0" data-transf="0" data-source="Pattern 9" data-draw="1" fill="#B3B3B3" fill-opacity="1"><path transform="matrix(1,0,0,1,0,0)" d="M0 4 L10 4 L10 6 L0 6 L0 4 Z M4 10 L4 0 L6 0 L6 10 L4 10 Z"></path></pattern><linearGradient id="linearSystem" gradientUnits="objectBoundingBox" x1="0%" y1="50%" x2="100%" y2="50%" spreadMethod="pad"><stop offset="50%" stop-color="#D0D0D0" stop-opacity="1"></stop><stop offset="100%" stop-color="transparent" stop-opacity="1"></stop></linearGradient><linearGradient id="linearSystem1" gradientUnits="objectBoundingBox" x1="0%" y1="50%" x2="100%" y2="50%" spreadMethod="pad"><stop offset="30%" stop-color="#D0D0D0" stop-opacity="1"></stop><stop offset="100%" stop-color="transparent" stop-opacity="1"></stop></linearGradient><linearGradient id="linearSystem2" gradientUnits="objectBoundingBox" x1="0%" y1="50%" x2="50%" y2="50%" spreadMethod="repeat"><stop offset="30%" stop-color="#D0D0D0" stop-opacity="1"></stop><stop offset="100%" stop-color="transparent" stop-opacity="1"></stop></linearGradient><linearGradient id="linearSystem3" gradientUnits="objectBoundingBox" x1="0%" y1="50%" x2="50%" y2="50%" spreadMethod="reflect"><stop offset="30%" stop-color="#D0D0D0" stop-opacity="1"></stop><stop offset="100%" stop-color="transparent" stop-opacity="1"></stop></linearGradient><radialGradient id="radialSystem" gradientUnits="objectBoundingBox" r="0.5" cx="0.5" fx="0.5" cy="0.5" fy="0.5" spreadMethod="pad"><stop offset="50%" stop-color="#D0D0D0" stop-opacity="1"></stop><stop offset="100%" stop-color="transparent" stop-opacity="1"></stop></radialGradient><pattern id="patternSystem" patternUnits="userSpaceOnUse" x="0" y="0" width="6" height="8"><path stroke="#D0D0D0" stroke-width="5" fill="none" d="M0 0 L0 10"></path></pattern><linearGradient id="linear0" gradientUnits="objectBoundingBox" x1="0%" y1="50%" x2="100%" y2="50%" spreadMethod="pad"><stop offset="0%" stop-color="#FF8000" stop-opacity="1"></stop><stop offset="100%" stop-color="#FFFF00" stop-opacity="1"></stop></linearGradient><linearGradient id="linear1" gradientUnits="objectBoundingBox" x1="75%" y1="50.83%" x2="99.88%" y2="46.58%" spreadMethod="pad"><stop offset="0%" stop-color="#005bff" stop-opacity="1"></stop><stop offset="100%" stop-color="#FF8000" stop-opacity="1"></stop></linearGradient><linearGradient id="linearImport" gradientUnits="objectBoundingBox" x1="0%" y1="50%" x2="100%" y2="50%" spreadMethod="pad"><stop offset="0%" stop-color="#FFFFFF" stop-opacity="0.1"></stop><stop offset="100%" stop-color="#000000" stop-opacity="0.1"></stop></linearGradient><radialGradient id="radial0" gradientUnits="objectBoundingBox" r="0.5" cx="0.5" fx="0.5" cy="0.5" fy="0.5" spreadMethod="pad"><stop offset="0%" stop-color="#FF8000" stop-opacity="1"></stop><stop offset="100%" stop-color="#FFFF00" stop-opacity="1"></stop></radialGradient><radialGradient id="radial1" gradientUnits="objectBoundingBox" r="0.5" cx="0.5" fx="0.5" cy="0.5" fy="0.5" spreadMethod="pad"><stop offset="0%" stop-color="#FFFF00" stop-opacity="1"></stop><stop offset="100%" stop-color="#FF8000" stop-opacity="1"></stop></radialGradient><radialGradient id="radialImport" gradientUnits="objectBoundingBox" r="0.5" cx="0.5" fx="0.5" cy="0.5" fy="0.5" spreadMethod="pad"><stop offset="0%" stop-color="#FFFFFF" stop-opacity="0.1"></stop><stop offset="100%" stop-color="#000000" stop-opacity="0.1"></stop></radialGradient><linearGradient id="linear2" gradientUnits="objectBoundingBox" x1="0%" y1="50%" x2="100%" y2="50%" spreadMethod="pad"><stop offset="0%" stop-color="#FFFF00" stop-opacity="1"></stop><stop offset="100%" stop-color="#FF8000" stop-opacity="1"></stop></linearGradient><radialGradient id="radial3" gradientUnits="objectBoundingBox" r="0.5" cx="0.5" fx="0.5" cy="0.5" fy="0.5" spreadMethod="pad"><stop offset="0%" stop-color="#FFFF00" stop-opacity="1"></stop><stop offset="100%" stop-color="#FF8000" stop-opacity="1"></stop></radialGradient><linearGradient id="linear4" gradientUnits="objectBoundingBox" x1="0%" y1="50%" x2="100%" y2="50%" spreadMethod="pad"><stop offset="0%" stop-color="#FFFF00" stop-opacity="1"></stop><stop offset="100%" stop-color="#FF8000" stop-opacity="1"></stop></linearGradient><pattern id="pattern10" patternUnits="userSpaceOnUse" x="1006" y="493.5" width="10" height="10" data-x="1006" data-y="493.5" data-width="10" data-height="10" data-multx="1" data-multy="1" stroke="none" patternTransform="matrix(1,0,0,1,0,0)" data-transs="0" data-transf="0" data-source="Pattern 0" data-draw="1" fill="#B3B3B3" fill-opacity="1"><path transform="matrix(1,0,0,1,0,0)" d="M0 0 L5 0 L5 5 L0 5 L0 0 Z"></path></pattern><pattern id="patternPreview" patternUnits="userSpaceOnUse" x="1006" y="493.5" width="10" height="10" data-x="1006" data-y="493.5" data-width="10" data-height="10" data-multx="1" data-multy="1" stroke="none" patternTransform="matrix(1,0,0,1,0,0)" data-transs="0" data-transf="0" data-source="Pattern 0" data-draw="1" fill="#B3B3B3" fill-opacity="1"><path transform="matrix(1,0,0,1,0,0)" d="M0 0 L5 0 L5 5 L0 5 L0 0 Z"></path></pattern><radialGradient id="radial5" gradientUnits="objectBoundingBox" r="0.5" cx="0.5" fx="0.5" cy="0.5" fy="0.5" spreadMethod="pad"><stop offset="0%" stop-color="#FFFF00" stop-opacity="1"></stop><stop offset="100%" stop-color="#FF8000" stop-opacity="1"></stop></radialGradient><linearGradient id="linear6" gradientUnits="objectBoundingBox" x1="0%" y1="50%" x2="100%" y2="50%" spreadMethod="pad"><stop offset="0%" stop-color="#FFFF00" stop-opacity="1"></stop><stop offset="100%" stop-color="#FF8000" stop-opacity="1"></stop></linearGradient><linearGradient id="linear7" gradientUnits="objectBoundingBox" x1="45%" y1="25%" x2="100%" y2="49.42%" spreadMethod="pad"><stop offset="0%" stop-color="#005bac" stop-opacity="1"></stop><stop offset="100%" stop-color="#E6E6E6" stop-opacity="1"></stop></linearGradient></defs><rect id="pageExport" x="0" y="0" width="1010" height="200" fill="none" fill-opacity="0" stroke="none" stroke-width="0"></rect><g id="objectsExport" visibility="visible"><path id="path0" d="M0 100 L0 170 L99.938 170 L199.875 170 L199.875 143.313 L199.875 116.479 L222.625 87.896 L245.537 59.167 L270.563 59.167 L295.75 59.167 L295.75 114.583 L295.75 170 L317.688 170 L339.625 170 L339.625 114.583 L339.741 59.99 L390 59.167 L390 44.583 L390 30 L304.688 30 L219.375 30 C191.263 67.917 181.838 80.458 180.213 82.354 C180.213 82.354 177.287 85.708 177.287 85.708 C177.287 85.708 156.813 57.854 156.813 57.854 C156.813 57.854 136.5 30 136.5 30 C136.5 30 111.963 30 111.963 30 C111.963 30 87.588 30 87.588 30 C87.588 30 94.738 39.042 94.738 39.042 C98.8 44.146 114.238 63.542 129.025 82.354 C129.025 82.354 156 116.479 156 116.479 C156 116.479 156 129.458 156 129.458 C156 129.458 156 142.292 156 142.292 C156 142.292 99.613 142 99.613 142 C99.613 142 43.063 141.563 43.063 141.563 C43.063 141.563 42.575 85.708 42.575 85.708 C42.575 85.708 42.25 30 42.25 30 C42.25 30 21.125 30 21.125 30 C21.125 30 0 30 0 30 C0 30 0 100 0 100 Z " data-centerx="195" data-centery="100" stroke="#000000" stroke-width="0" data-sw="0" stroke-opacity="0" stroke-linecap="round" stroke-linejoin="round" fill="#005bac" fill-opacity="1" fill-rule="evenodd" filter="none" visibility="visible" stroke-dasharray="none" marker-start="none" marker-end="none" data-name="curve" data-title="curve" deg="0" data-grad="0" data-group="0" data-edit="1"></path><g id="group2" visibility="visible" stroke="#000000" stroke-width="NaN" stroke-opacity="1" stroke-dasharray="none" fill="none" fill-opacity="1" data-name="group" data-title="text" deg="0" data-edit="1" data-centerx="705.579" data-centery="98.3"><text id="text3" visibility="visible" font-family="Verdana" font-size="150" font-weight="bold" font-style="normal" transform="matrix(1.013,0,0,1.132,-693.674,-367.159)" stroke="none" stroke-width="0" stroke-opacity="1" stroke-dasharray="none" fill="#005bb3" fill-opacity="1" data-name="text" data-title="text" deg="0" data-sw="0" data-group="group2" data-trans="translate(-455,-381) matrix(1.013,0,0,1.132,-238.674,13.841)" data-edit="1" filter="none" x="1081" y="470.5" data-centerx="726" data-centery="87.849">日本朗裕</text></g></g><g id="settings" visibility="hidden" data-dn0="primalDraw" data-dn1="#FAFAFA" data-dn2="#D2D2D2" data-dn3="18" data-dn4="#000000" data-dn5="#B3B3B3" data-dn6="1" data-dn7="1" data-dn8="2" data-dn9="round" data-dn10="round" data-dn11="none" data-dn12="none" data-dn13="none" data-dn14="evenodd" data-dn15="10" data-dn16="1" data-dn17="1010" data-dn18="200" data-dn19="1" data-dn20="0" data-dn21="1" data-dn22="1" data-dn23="4" data-dn24="path0,group2" data-dn25="8" data-dn26="url(#linear0)" data-dn27="url(#linear1)" data-dn28="url(#radial0)" data-dn29="url(#radial1)" data-dn30="#FF8000" data-dn31="#FFFF00" data-dn32="#000000" data-dn33="1" data-dn34="1" data-dn35="11" data-dn36="" data-dn37="0" data-dn38="87"></g></svg>