<?xml version="1.0" standalone="no"?>
<!DOCTYPE svg PUBLIC "-//W3C//DTD SVG 20010904//EN"
 "http://www.w3.org/TR/2001/REC-SVG-20010904/DTD/svg10.dtd">
<svg version="1.0" xmlns="http://www.w3.org/2000/svg"
 width="216.000000pt" height="120.000000pt" viewBox="0 0 216.000000 120.000000"
 preserveAspectRatio="xMidYMid meet">
<metadata>
Created by potrace 1.10, written by Peter Selinger 2001-2011
</metadata>
<g transform="translate(0.000000,120.000000) scale(0.100000,-0.100000)"
fill="#005bac" stroke="none">
<path d="M442 593 l3 -238 285 -2 c157 -1 295 0 308 3 21 4 22 9 22 93 l0 88
65 86 64 85 81 4 c45 2 88 -1 96 -5 11 -6 14 -41 14 -176 0 -145 2 -170 16
-175 20 -8 62 -8 92 0 22 6 22 9 22 175 0 118 3 170 12 175 6 4 34 6 61 5 27
-1 62 1 79 4 28 7 29 9 26 58 l-3 52 -265 3 c-146 1 -274 0 -285 -2 -11 -3
-31 -22 -45 -43 -14 -20 -41 -55 -61 -76 l-36 -40 -59 74 c-32 41 -63 77 -69
81 -14 11 -147 10 -143 -1 2 -4 13 -21 26 -37 12 -16 59 -78 103 -139 64 -88
79 -115 77 -140 l-3 -30 -178 -3 c-151 -2 -178 0 -183 13 -3 8 -7 88 -8 177
l-1 163 -58 3 -57 3 2 -238z"/>
</g>
</svg>
