<?xml version="1.0" standalone="no"?>
<!DOCTYPE svg PUBLIC "-//W3C//DTD SVG 20010904//EN"
 "http://www.w3.org/TR/2001/REC-SVG-20010904/DTD/svg10.dtd">
<svg version="1.0" xmlns="http://www.w3.org/2000/svg"
 width="72.000000pt" height="40.000000pt" viewBox="0 0 72.000000 40.000000"
 preserveAspectRatio="xMidYMid meet">
<metadata>
Created by potrace 1.10, written by Peter Selinger 2001-2011
</metadata>
<g transform="translate(0.000000,40.000000) scale(0.100000,-0.100000)"
fill="#005bac" stroke="none">
<path d="M149 283 c0 -5 -2 -43 -2 -85 l-2 -78 108 0 107 0 0 31 c0 45 35 89
71 89 29 0 29 0 29 -60 0 -57 1 -60 25 -60 24 0 25 3 25 60 0 60 0 60 30 60
24 0 30 4 30 23 0 21 -2 22 -97 20 -92 -2 -97 -3 -118 -29 l-22 -27 -22 32
c-15 20 -31 31 -47 31 -13 0 -24 -3 -24 -6 0 -4 16 -28 35 -54 19 -26 35 -53
35 -59 0 -7 -23 -11 -60 -11 l-60 0 0 65 c0 58 -2 65 -20 65 -11 0 -20 -3 -21
-7z"/>
</g>
</svg>
